<?xml version="1.0" encoding="UTF-8" standalone="no"?>
<svg width="38px" height="36px" viewBox="0 0 38 36" version="1.1" xmlns="http://www.w3.org/2000/svg" xmlns:xlink="http://www.w3.org/1999/xlink">
    <!-- Generator: Sketch 42 (36781) - http://www.bohemiancoding.com/sketch -->
    <title>Icon</title>
    <desc>Created with Sketch.</desc>
    <defs></defs>
    <g id="Page-1" stroke="none" stroke-width="1" fill="none" fill-rule="evenodd">
        <g id="Logo">
            <g id="Icon">
                <path d="M18.8322,12.9102 L24.8102,10.3942 L18.8322,7.7782 L12.8542,10.3942 L18.8322,12.9102 Z M18.8322,35.6682 C18.3122,35.6682 17.8072,35.5632 17.3292,35.3532 L2.2262,28.7392 C0.8592,28.1342 -0.0118,26.7872 0.0002,25.3062 L0.0002,10.3342 C-0.0118,8.8682 0.8592,7.5272 2.2192,6.9282 L17.3342,0.3092 C17.7462,0.1352 18.1552,0.0372 18.5702,0.0092 C18.5702,0.0092 18.7902,0.0002 18.7932,0.0002 C19.3532,0.0002 19.8452,0.1012 20.3112,0.3012 L35.4382,6.9252 C36.8042,7.5262 37.6762,8.8732 37.6642,10.3572 L37.6642,25.3292 C37.6762,26.7912 36.8072,28.1322 35.4512,28.7342 L20.3302,35.3542 C19.8612,35.5622 19.3552,35.6682 18.8322,35.6682 L18.8322,35.6682 Z" id="Fill-1" fill="#FFFFFF"></path>
                <path d="M34.4662,9.6881 C34.7902,9.8301 34.9972,10.1501 34.9942,10.5011 L34.9942,25.4961 C34.9972,25.8471 34.7902,26.1661 34.4662,26.3091 L19.3582,32.9241 C19.1282,33.0261 18.8662,33.0261 18.6362,32.9241 L3.5282,26.3091 C3.2042,26.1661 2.9972,25.8471 3.0002,25.4961 L3.0002,10.5011 C2.9972,10.1501 3.2042,9.8301 3.5282,9.6881 L18.6362,3.0721 C18.7292,3.0331 18.8272,3.0101 18.9282,3.0031 C19.0752,2.9901 19.2232,3.0141 19.3582,3.0721 L34.4662,9.6881 Z M18.1082,30.7601 L18.1082,27.3981 L4.7772,21.7881 L4.7772,24.9171 L18.1082,30.7601 Z M18.1082,25.4821 L18.1082,22.5461 L4.7772,16.9371 L4.7772,19.8731 L18.1082,25.4821 Z M18.1082,20.6311 L18.1082,17.6951 L4.7772,12.0861 L4.7772,15.0211 L18.1082,20.6311 Z M18.9972,16.1511 L32.1612,10.6111 L18.9972,4.8501 L5.8332,10.6111 L18.9972,16.1511 Z M33.2172,24.9171 L33.2172,21.7881 L19.8862,27.3981 L19.8862,30.7601 L33.2172,24.9171 Z M33.2172,19.8731 L33.2172,16.9371 L19.8862,22.5461 L19.8862,25.4821 L33.2172,19.8731 Z M33.2172,15.0211 L33.2172,12.0861 L19.8862,17.6951 L19.8862,20.6311 L33.2172,15.0211 Z" id="Combined-Shape" fill="#000000"></path>
            </g>
        </g>
    </g>
</svg>